<?xml version="1.0" standalone="no"?>
<!DOCTYPE svg PUBLIC "-//W3C//DTD SVG 20010904//EN"
 "http://www.w3.org/TR/2001/REC-SVG-20010904/DTD/svg10.dtd">
<svg version="1.0" xmlns="http://www.w3.org/2000/svg"
 width="200.000000pt" height="200.000000pt" viewBox="0 0 200.000000 200.000000"
 preserveAspectRatio="xMidYMid meet">
<metadata>
Created by potrace 1.11, written by Peter Selinger 2001-2013
</metadata>
<g transform="translate(0.000000,200.000000) scale(0.100000,-0.100000)"
fill="#000000" stroke="none">
<path d="M25 1975 l-25 -24 0 -565 c0 -310 3 -571 6 -580 3 -9 10 -16 16 -16
5 0 7 4 4 9 -4 5 3 7 14 4 11 -3 17 -10 13 -16 -4 -6 0 -8 10 -4 9 3 18 0 21
-9 3 -9 10 -13 14 -10 5 3 31 -2 59 -10 56 -16 80 -44 38 -44 -13 0 -31 -7
-39 -16 -9 -8 -21 -12 -28 -8 -8 5 -7 1 2 -10 8 -10 16 -14 17 -9 4 12 84 -7
96 -22 4 -5 5 -20 2 -32 -7 -30 29 -41 56 -17 23 21 26 8 3 -17 -10 -11 -12
-19 -5 -24 6 -3 11 -2 11 3 0 6 10 8 22 4 19 -5 20 -6 4 -12 -14 -4 -7 -11 28
-29 26 -12 54 -20 64 -18 13 4 11 5 -5 6 -34 2 -28 17 10 26 32 7 32 7 7 15
-23 8 -23 8 8 9 33 1 33 2 30 44 -3 39 -5 42 -33 45 -16 2 -34 7 -39 12 -5 5
10 6 33 3 37 -5 41 -4 41 16 0 17 -6 21 -37 22 -28 1 -31 3 -13 6 43 8 49 26
8 21 -21 -2 -38 0 -38 4 0 4 9 8 21 8 11 0 18 4 14 10 -3 5 -12 7 -20 3 -8 -3
-15 0 -15 6 0 7 10 11 23 10 12 -1 41 -1 65 -1 36 2 43 5 40 20 -2 9 -13 21
-25 27 -13 5 -25 15 -27 21 -3 8 4 8 22 -2 15 -8 32 -14 39 -14 6 0 14 -15 16
-32 3 -23 4 -19 4 12 l-2 45 43 3 c28 2 42 8 42 18 0 10 13 14 51 14 43 0 54
4 71 25 11 14 29 25 40 25 14 0 18 5 14 15 -3 8 -1 15 5 15 6 0 13 -8 16 -18
5 -20 43 -48 43 -32 0 5 -4 10 -10 10 -5 0 -10 5 -10 11 0 6 7 8 16 5 11 -4
22 1 31 14 9 13 21 19 30 16 11 -4 13 -2 9 9 -3 8 -1 15 4 15 11 0 66 56 135
138 28 33 51 57 53 53 1 -4 -18 -68 -43 -142 -46 -133 -74 -189 -123 -241 -14
-15 -22 -31 -19 -35 4 -3 7 -1 7 5 0 7 9 12 20 12 13 0 24 10 31 27 7 19 13
23 18 15 5 -8 12 3 20 30 7 24 20 57 29 73 9 17 15 35 14 42 -2 7 4 27 11 45
11 26 24 37 55 47 59 20 67 45 46 149 -4 20 -2 22 16 12 17 -9 20 -8 20 10 0
12 4 18 10 15 6 -4 8 -15 5 -26 -8 -23 10 -26 19 -3 8 22 7 97 -2 110 -4 6
-15 13 -24 17 -11 4 -15 13 -11 27 7 27 19 33 42 20 26 -13 41 -68 42 -150 1
-73 8 -61 29 48 7 34 17 62 21 62 8 0 15 -118 11 -170 -1 -8 -3 -42 -6 -75 -5
-60 -5 -60 5 -15 6 25 22 90 35 145 14 59 27 145 30 210 3 60 7 116 9 123 6
18 -22 175 -39 214 -8 18 -22 53 -32 78 -37 97 -60 139 -73 140 -10 0 -12 -8
-7 -32 4 -18 11 -62 16 -98 5 -36 12 -81 15 -100 3 -19 -10 8 -28 60 -24 67
-38 94 -49 92 -10 -1 -19 12 -27 39 -7 22 -14 39 -17 37 -2 -3 0 -47 6 -99 14
-132 12 -228 -5 -344 -14 -93 -62 -262 -71 -252 -3 2 5 40 17 83 29 101 31
281 5 439 -22 133 -39 172 -32 70 l4 -70 -13 45 c-8 25 -19 64 -25 88 -6 23
-17 42 -24 42 -10 0 -13 -29 -12 -132 1 -143 -22 -405 -34 -391 -7 7 -51 231
-91 456 -12 63 -14 67 -39 67 -22 0 -29 -7 -38 -32 l-10 -33 -1 33 c-1 30 -3
32 -39 32 l-39 0 -32 -132 c-17 -73 -35 -153 -40 -178 -8 -39 -9 -32 -10 55
-1 69 -4 95 -11 85 -5 -8 -10 -48 -10 -89 0 -41 -2 -72 -4 -70 -3 3 -8 56 -12
119 -4 63 -10 138 -14 165 -8 59 -4 74 -44 -185 -47 -302 -43 -292 -47 -140
-1 74 -4 110 -6 80 -8 -109 -20 -68 -33 110 -8 99 -16 180 -20 180 -3 0 -13
-71 -22 -157 l-15 -158 -2 95 c-2 68 -5 89 -12 75 -6 -13 -8 7 -4 63 l5 82
-195 0 c-195 0 -196 0 -220 -25z m1242 -77 c-3 -8 -6 -5 -6 6 -1 11 2 17 5 13
3 -3 4 -12 1 -19z m-563 -698 c-5 -12 -8 -12 -20 4 -17 24 -18 55 -2 93 11 27
12 27 19 -27 5 -30 6 -62 3 -70z m703 73 c-3 -10 -5 -2 -5 17 0 19 2 27 5 18
2 -10 2 -26 0 -35z m-418 -35 c-14 -27 -17 -20 -11 27 4 36 6 37 13 17 6 -15
5 -31 -2 -44z m-94 -18 c-30 -33 -125 -24 -125 12 0 5 11 1 25 -8 27 -18 76
-12 96 12 6 8 14 12 17 9 3 -3 -3 -14 -13 -25z m285 -66 c-18 -21 -24 -10 -8
15 7 12 14 17 16 11 2 -6 -2 -17 -8 -26z m-333 -186 c-3 -8 -6 -5 -6 6 -1 11
2 17 5 13 3 -3 4 -12 1 -19z m-301 -103 c-16 -17 -46 -20 -46 -6 0 8 13 13 53
20 5 0 2 -6 -7 -14z m-68 -72 c-10 -2 -28 -2 -40 0 -13 2 -5 4 17 4 22 1 32
-1 23 -4z m-101 -59 c-3 -3 -12 -4 -19 -1 -8 3 -5 6 6 6 11 1 17 -2 13 -5z
m-82 -114 c0 -8 -9 -16 -20 -18 -17 -3 -17 -1 -5 7 13 10 13 12 0 22 -12 8
-12 10 5 7 11 -2 20 -10 20 -18z m97 -67 c-6 -2 -10 -9 -6 -14 3 -5 -2 -9 -10
-9 -9 0 -16 4 -16 9 0 10 18 19 35 19 6 0 4 -2 -3 -5z"/>
<path d="M1121 1984 c0 -11 3 -14 6 -6 3 7 2 16 -1 19 -3 4 -6 -2 -5 -13z"/>
<path d="M978 996 c-22 -16 -23 -26 -3 -26 8 0 19 9 25 20 12 23 3 25 -22 6z"/>
<path d="M820 880 c-10 -6 -11 -10 -2 -10 6 0 12 -7 12 -16 0 -8 5 -12 10 -9
8 5 7 12 -2 23 -11 14 -10 15 5 9 10 -4 21 -7 24 -7 3 0 0 -7 -8 -16 -12 -15
-21 -115 -10 -113 15 1 51 61 59 96 9 39 8 40 -17 40 -14 0 -33 2 -41 6 -8 4
-22 2 -30 -3z"/>
<path d="M60 750 c-9 -6 -10 -10 -3 -10 6 0 15 5 18 10 8 12 4 12 -15 0z"/>
<path d="M485 750 l-40 -7 48 -2 c26 0 47 4 47 9 0 6 -3 9 -7 9 -5 -1 -26 -5
-48 -9z"/>
<path d="M0 733 c0 -5 30 -31 68 -58 83 -60 79 -57 65 -62 -7 -3 -13 -11 -13
-19 0 -8 -4 -14 -10 -14 -10 0 -65 -77 -92 -130 -10 -19 -18 -50 -18 -69 l0
-35 63 67 c34 36 69 76 77 88 14 19 14 14 9 -58 -8 -105 -26 -189 -52 -238
-11 -22 -24 -62 -29 -90 -4 -27 -9 -60 -11 -72 -3 -13 -1 -23 2 -23 4 0 12 26
19 58 7 32 24 82 38 111 14 30 23 59 20 66 -2 7 0 17 5 22 10 10 43 232 40
273 -1 24 0 23 34 -10 28 -27 32 -36 23 -49 -10 -13 -10 -14 2 -3 14 12 39 18
27 6 -7 -7 13 -28 73 -75 51 -39 91 -59 121 -59 29 0 99 51 178 130 80 79 76
81 86 -51 4 -48 11 -93 16 -100 5 -9 7 3 4 31 -18 195 -18 215 -1 229 40 33
10 27 -51 -11 -99 -60 -209 -108 -249 -108 -19 0 -49 7 -67 16 -61 31 -262
158 -319 201 -32 24 -58 40 -58 36z"/>
<path d="M498 723 c7 -3 16 -2 19 1 4 3 -2 6 -13 5 -11 0 -14 -3 -6 -6z"/>
<path d="M865 705 c-16 -14 -34 -25 -40 -25 -5 0 -21 -12 -34 -25 -18 -19 -20
-25 -7 -25 8 0 23 9 33 19 10 11 35 33 57 50 21 17 35 31 30 31 -5 -1 -22 -12
-39 -25z"/>
<path d="M100 716 c0 -2 9 -6 20 -9 11 -3 18 -1 14 4 -5 9 -34 13 -34 5z"/>
<path d="M187 628 c2 -5 13 -6 24 -3 15 5 17 3 12 -11 -4 -12 -3 -15 6 -10 19
12 7 31 -22 31 -14 1 -23 -3 -20 -7z"/>
<path d="M650 615 c7 -8 17 -15 22 -15 5 0 3 7 -6 15 -8 8 -18 15 -22 15 -3 0
-1 -7 6 -15z"/>
<path d="M570 550 c-8 -5 -33 -7 -55 -5 -29 3 -33 3 -15 -3 24 -8 24 -8 5 -20
-17 -10 -18 -11 -2 -12 9 0 17 5 17 10 0 6 10 10 23 10 12 0 31 7 41 15 22 16
10 20 -14 5z"/>
<path d="M200 506 c0 -9 5 -16 10 -16 6 0 10 4 10 9 0 6 -4 13 -10 16 -5 3
-10 -1 -10 -9z"/>
<path d="M207 443 c8 -52 13 -54 13 -5 0 23 -4 42 -9 42 -6 0 -7 -17 -4 -37z"/>
<path d="M256 433 c8 -35 7 -33 23 -24 11 7 11 12 0 30 -19 29 -31 26 -23 -6z"/>
<path d="M232 425 c0 -16 2 -22 5 -12 2 9 2 23 0 30 -3 6 -5 -1 -5 -18z"/>
<path d="M327 395 c9 -19 22 -35 29 -35 17 0 -4 44 -28 59 -17 10 -17 9 -1
-24z"/>
<path d="M232 360 c0 -14 2 -19 5 -12 2 6 2 18 0 25 -3 6 -5 1 -5 -13z"/>
<path d="M388 353 c7 -3 16 -2 19 1 4 3 -2 6 -13 5 -11 0 -14 -3 -6 -6z"/>
<path d="M320 305 c0 -8 2 -15 4 -15 2 0 6 7 10 15 3 8 1 15 -4 15 -6 0 -10
-7 -10 -15z"/>
<path d="M780 169 c0 -23 32 -96 37 -83 2 6 -5 31 -17 55 -11 24 -20 37 -20
28z"/>
<path d="M990 45 c0 -8 4 -15 10 -15 5 0 7 7 4 15 -4 8 -8 15 -10 15 -2 0 -4
-7 -4 -15z"/>
</g>
</svg>
